<svg viewBox="0 0 32 32" fill="none" xmlns="http://www.w3.org/2000/svg">
  <defs>
    <linearGradient id="fg" x1="0%" y1="0%" x2="100%" y2="100%">
      <stop offset="0%" stop-color="#16a34a"/>
      <stop offset="100%" stop-color="#10b981"/>
    </linearGradient>
  </defs>
  <path d="M16 2C16 2 10 8 6 14C4 18 5 22 8 25C10 27 13 28 16 30C19 28 22 27 24 25C27 22 28 18 26 14C22 8 16 2 16 2Z" fill="url(#fg)"/>
  <path d="M16 7V26" stroke="white" stroke-width="1.2" stroke-linecap="round" stroke-opacity="0.4"/>
  <path d="M16 12L10 9M16 12L22 9M16 17L9 15M16 17L23 15M16 22L11 21M16 22L21 21" stroke="white" stroke-width="0.9" stroke-linecap="round" stroke-opacity="0.3"/>
  <polyline points="11,18 14.5,21.5 21,15" stroke="white" stroke-width="2.5" stroke-linecap="round" stroke-linejoin="round" fill="none"/>
</svg>
